{
	"asset":{
		"generator":"Khronos glTF Blender I/O v4.4.56",
		"version":"2.0"
	},
	"extensionsUsed":[
		"KHR_lights_punctual"
	],
	"extensionsRequired":[
		"KHR_lights_punctual"
	],
	"extensions":{
		"KHR_lights_punctual":{
			"lights":[
				{
					"color":[
						1,
						1,
						1
					],
					"intensity":54351.41306588226,
					"type":"point",
					"name":"Point"
				}
			]
		}
	},
	"scene":0,
	"scenes":[
		{
			"name":"Scene",
			"nodes":[
				0,
				1,
				2
			]
		}
	],
	"nodes":[
		{
			"extensions":{
				"KHR_lights_punctual":{
					"light":0
				}
			},
			"name":"Point",
			"rotation":[
				-0.7071068286895752,
				0,
				0,
				0.7071068286895752
			],
			"translation":[
				-0.7010373473167419,
				4.82170295715332,
				-4.11756706237793
			]
		},
		{
			"mesh":0,
			"name":"Cube",
			"scale":[
				0.6391573548316956,
				1,
				0.15326140820980072
			],
			"translation":[
				0,
				2.573310136795044,
				0
			]
		},
		{
			"camera":0,
			"name":"Camera",
			"translation":[
				0,
				0,
				12
			]
		}
	],
	"cameras":[
		{
			"name":"Camera",
			"perspective":{
				"aspectRatio":1.7777777777777777,
				"yfov":0.39959648408210363,
				"zfar":1000,
				"znear":0.10000000149011612
			},
			"type":"perspective"
		}
	],
	"meshes":[
		{
			"name":"Cube.002",
			"primitives":[
				{
					"attributes":{
						"POSITION":0,
						"NORMAL":1,
						"TEXCOORD_0":2,
						"TANGENT":3
					},
					"indices":4
				}
			]
		}
	],
	"accessors":[
		{
			"bufferView":0,
			"componentType":5126,
			"count":422,
			"max":[
				1.1223526000976562,
				4.957059383392334,
				0.7056596875190735
			],
			"min":[
				-0.9717375636100769,
				-2.4972450733184814,
				-0.769566535949707
			],
			"type":"VEC3"
		},
		{
			"bufferView":1,
			"componentType":5126,
			"count":422,
			"type":"VEC3"
		},
		{
			"bufferView":2,
			"componentType":5126,
			"count":422,
			"type":"VEC2"
		},
		{
			"bufferView":3,
			"componentType":5126,
			"count":422,
			"type":"VEC4"
		},
		{
			"bufferView":4,
			"componentType":5123,
			"count":672,
			"type":"SCALAR"
		}
	],
	"bufferViews":[
		{
			"buffer":0,
			"byteLength":5064,
			"byteOffset":0,
			"target":34962
		},
		{
			"buffer":0,
			"byteLength":5064,
			"byteOffset":5064,
			"target":34962
		},
		{
			"buffer":0,
			"byteLength":3376,
			"byteOffset":10128,
			"target":34962
		},
		{
			"buffer":0,
			"byteLength":6752,
			"byteOffset":13504,
			"target":34962
		},
		{
			"buffer":0,
			"byteLength":1344,
			"byteOffset":20256,
			"target":34963
		}
	],
	"buffers":[
		{
			"byteLength":21600,
			"uri":"BSC_Machete_source-239bc168a7bc72cbe18f9dc86ae41f2a.bin"
		}
	]
}
